<svg id="home" xmlns="http://www.w3.org/2000/svg" viewBox="0 0 150 150"><title>ms-bio</title><path d="M58.2,88.4l5.25-4a10.55,10.55,0,0,1-.58-3.45,11.42,11.42,0,0,1,8.62-10.79l.25-.46V63c-17.13-1.59-31.59-15.22-31.59-31.7A31.17,31.17,0,0,1,54.44,5.42c-13.66,6.66-23,20-23,35.48a38.23,38.23,0,0,0,9.06,24.62A42.53,42.53,0,0,0,11.56,77.13C-.1,88.42-2.75,104.94,3.17,119.57a30,30,0,0,1,8.12-29.23C23.54,78.47,43.63,77.61,58.2,88.4Z"/><path d="M138.44,77.13a42.53,42.53,0,0,0-28.94-11.61,38.23,38.23,0,0,0,9.06-24.62c0-15.43-9.34-28.82-23-35.48a31.17,31.17,0,0,1,14.28,25.9c0,16.47-14.46,30.11-31.59,31.7v6.63l.25.46A11.42,11.42,0,0,1,87.13,80.9a10.54,10.54,0,0,1-.58,3.45l5.25,4c14.57-10.79,34.67-9.93,46.91,1.94a30,30,0,0,1,8.12,29.23C152.75,104.94,150.1,88.42,138.44,77.13Z"/><path d="M84.91,124.69c-8.63-17.51,3.54-32.57,3.54-32.57l-4.62-3.5a12.72,12.72,0,0,1-17.69,0l-4.4,3.51c11.51,16.28,4.15,30.6,4.15,30.6-14.15,26.18-38.17,19.64-38.17,19.64,29.73,9.42,47.7-13.8,47.7-13.8,17.84,23.75,47.7,13.8,47.7,13.8C94.68,145.52,84.91,124.69,84.91,124.69Z"/><path d="M75.09,54.15A29.75,29.75,0,0,1,89.82,58l5.69-4A37,37,0,0,0,55,54.06,23.36,23.36,0,0,0,60.33,58,29.75,29.75,0,0,1,75.09,54.15Z"/><path d="M40.25,82.86c.89,14.21,11.4,26,25.51,29.71a45.47,45.47,0,0,0-.26-6.64c-9.84-3.3-17.16-11.53-18.6-21.52A61.94,61.94,0,0,0,40.25,82.86Z"/><path d="M110.31,83a44.17,44.17,0,0,0-7,1.32c-1.39,10-8.69,18.28-18.51,21.62-.36,2.35-.57,4.81-.69,6.87C98.53,109.27,109.36,97.37,110.31,83Z"/></svg>