<svg id="home" xmlns="http://www.w3.org/2000/svg" viewBox="0 0 150 150"><title>ms-chem</title><path d="M41,85.38l9-5.17v-.9A21.47,21.47,0,0,1,60.79,60.75l.69-.4,0-10.4-1.89.79A30.85,30.85,0,0,0,40.51,79.31a31.23,31.23,0,0,0,.26,4Z" style="stroke:#fff;stroke-miterlimit:10"/><path d="M68.2,46.29V60.71l1.68-.4a35,35,0,0,1,5.2-.55,36.19,36.19,0,0,1,5.17.55l1.7.42,0-14.44A23.36,23.36,0,0,0,75.09.61h-.76A23.37,23.37,0,0,0,68.2,46.29Z" style="stroke:#fff;stroke-miterlimit:10"/><path d="M75.09,64.82A18.15,18.15,0,1,0,93.24,83,18.17,18.17,0,0,0,75.09,64.82Z" style="stroke:#fff;stroke-miterlimit:10"/><path d="M109.13,85.41l.27-2a31.22,31.22,0,0,0,.27-4.08A30.84,30.84,0,0,0,90.6,50.75L88.71,50V60.37l.69.39a21.06,21.06,0,0,1,10.74,18.4v1.06Z" style="stroke:#fff;stroke-miterlimit:10"/><path d="M59,101l-1.19-1.26a35,35,0,0,1-3.08-4.22,36.49,36.49,0,0,1-2.11-4.75l-.48-1.68L39.63,96.3A23.37,23.37,0,0,0,3.5,125.11l.19.34.11.2.07.12a23.37,23.37,0,0,0,42.63-17.53Z" style="stroke:#fff;stroke-miterlimit:10"/><path d="M148.94,107.39A23.36,23.36,0,0,0,110.49,96.3L98,89.11l-.48,1.68a36.4,36.4,0,0,1-2.11,4.75,35,35,0,0,1-3.08,4.23L91.12,101l12.49,7.21a23.36,23.36,0,0,0,42.63,17.54l.08-.14.1-.18.2-.34A23.19,23.19,0,0,0,148.94,107.39Z" style="stroke:#fff;stroke-miterlimit:10"/><path d="M85.77,105.16a21.4,21.4,0,0,1-21.38,0l-.69-.4-9,5.21,1.63,1.25a30.9,30.9,0,0,0,37.49,0L95.46,110l-9-5.22Z" style="stroke:#fff;stroke-miterlimit:10"/></svg>