<svg width="64" height="64" viewBox="0 0 64 64" fill="none" xmlns="http://www.w3.org/2000/svg">
<path d="M32 35.2596C33.1634 35.2571 34.2998 34.9098 35.2658 34.2615C36.2318 33.6133 36.9839 32.6933 37.4272 31.6177C37.8704 30.5421 37.9849 29.3593 37.756 28.2187C37.5272 27.078 36.9654 26.0309 36.1416 25.2095C35.3179 24.3881 34.2691 23.8293 33.1278 23.6038C31.9865 23.3783 30.804 23.4962 29.7297 23.9425C28.6554 24.3889 27.7376 25.1437 27.0921 26.1115C26.4467 27.0794 26.1027 28.2168 26.1035 29.3802C26.1092 30.9407 26.7328 32.4355 27.8378 33.5374C28.9429 34.6393 30.4395 35.2585 32 35.2596Z" fill="black"/>
<path d="M23.1637 29.2053C23.1983 27.767 23.5827 26.3588 24.2838 25.1025C24.9848 23.8461 25.9813 22.7794 27.1871 21.9947L14.8138 2.79468C10.3501 5.61194 6.6683 9.50847 4.10825 14.1244C1.54821 18.7404 0.192503 23.927 0.166321 29.2053H23.1637Z" fill="black"/>
<path d="M40.8364 29.2053H63.8338C63.8021 23.9284 62.4421 18.7445 59.8792 14.1318C57.3163 9.51899 53.6331 5.62591 49.1692 2.81165L36.7959 22.0117C38.0025 22.7929 39.0009 23.856 39.7049 25.1093C40.4088 26.3626 40.7972 27.7683 40.8364 29.2053Z" fill="black"/>
<path d="M28.0278 37.2522L17.0027 57.4165C21.6419 59.9221 26.8373 61.2195 32.1099 61.1889C37.3824 61.1583 42.5624 59.8008 47.1723 57.2415L36.2667 37.184C35.0041 37.8695 33.5924 38.2342 32.1557 38.2461C30.7191 38.258 29.3015 37.9167 28.0278 37.2522Z" fill="black"/>
</svg>
